<?xml version="1.0" encoding="UTF-8"?>
<svg id="SCREEN" xmlns="http://www.w3.org/2000/svg" viewBox="0 0 292.36 101.48">
  <defs>
    <style>
      .cls-1 {
        font-size: 8.94px;
      }

      .cls-2, .cls-3 {
        fill: #082934;
      }

      .cls-3 {
        font-family: MicrosoftNewTaiLue-Bold, 'Microsoft New Tai Lue';
        font-weight: 700;
      }

      .cls-4 {
        font-size: 31.07px;
      }
    </style>
  </defs>
  <g>
    <path class="cls-2" d="M33.24,37.42c8.37,0,15.01,6.62,15.04,15.02.03,8.3-6.71,15.01-15.07,15-8.39,0-14.96-6.71-14.98-15.29-.02-7.98,6.85-14.72,15.01-14.73ZM33.36,39.97c-6.87.02-12.44,5.56-12.43,12.38,0,7.01,5.62,12.54,12.69,12.5,6.4-.03,12.09-5.77,12.12-12.23.03-6.96-5.55-12.67-12.38-12.66Z"/>
    <path class="cls-2" d="M49.65,65.95c-1.84-.01-2.61-1.34-1.9-2.83.87-1.81,1.71-3.65,2.8-5.32.38-.58,1.64-1.09,2.22-.88.6.22,1.39,1.56,1.19,2.05-.86,2.17-2.01,4.23-3.16,6.27-.23.41-.92.57-1.15.7Z"/>
    <path class="cls-2" d="M26.29,31.45c.52-.31,1.18-.24,1.63.17.53.48.95.85,1,1.26.08.68-.33,1.77-.88,2.11-1.8,1.11-3.71,2.06-5.67,2.85-.56.23-1.7-.08-2.07-.54-.38-.47-.44-1.88-.11-2.11,1.92-1.32,3.95-2.47,6.1-3.73Z"/>
    <path class="cls-2" d="M17.14,62.15c.33-.06.67,0,.95.19s.63.41.92.7c1.2,1.16,2.29,2.42,3.52,3.55.99.91,1.43,1.89.54,3-.86,1.09-1.99.88-2.87.04-1.54-1.46-3.08-2.93-4.39-4.58-.93-1.16-.28-2.59,1.33-2.89Z"/>
    <path class="cls-2" d="M40.73,73.06c-.68.4-1.55.32-2.14-.21-.47-.41-.84-.77-.92-1.19-.12-.61.45-1.68,1.03-2.04,1.69-1.05,3.5-1.97,5.36-2.66.65-.24,1.81.08,2.34.57.36.32.32,1.83-.04,2.08-1.76,1.21-3.62,2.27-5.63,3.45Z"/>
    <path class="cls-2" d="M51.27,40.48c.06.37-.04.75-.26,1.05-.27.38-.58.79-.98.96-.5.2-1.43.02-1.86-.35-1.63-1.44-3.2-2.95-4.62-4.59-.39-.45-.43-1.62-.1-2.13.33-.51,1.17-.88,1.93-.82,2.71.18,3.91,3.78,5.82,5.72.04.04.06.09.07.17Z"/>
    <path class="cls-2" d="M14.99,48.05c-1.85.06-2.88-1.1-2.31-2.52.83-2.06,1.87-4.06,3.07-5.92.32-.49,1.69-.7,2.36-.45.97.36,1.32,1.35.75,2.45-.95,1.82-1.81,3.7-2.81,5.5-.26.48-.87.77-1.07.94Z"/>
    <path class="cls-2" d="M34.18,30.48c1.84.38,3.7.71,5.53,1.16,1.24.3,1.89,1.19,1.45,2.45-.42,1.2-1.39,1.51-2.64,1.21-1.5-.36-3.01-.7-4.54-.82-1.42-.11-2.65-.42-2.59-2.04.07-1.64,1.37-1.91,2.8-1.96Z"/>
    <path class="cls-2" d="M11.42,53.08c.01-1.44.53-2.55,2-2.6,1.49-.05,1.91,1.06,1.99,2.45.1,1.53.34,3.08.72,4.56.34,1.33.13,2.41-1.2,2.76-1.32.35-2.14-.48-2.41-1.81-.37-1.79-.74-3.58-1.1-5.37Z"/>
    <path class="cls-2" d="M34.04,73.78c-.37.34-.88.49-1.37.4-2.19-.4-4.05-.72-5.9-1.1-1.1-.23-1.73-.97-1.51-2.12.23-1.21,1.09-1.74,2.28-1.56,2.04.31,4.1.55,6.08,1.11.63.18,1.43,1.33,1.36,1.95-.05.48-.5.92-.94,1.33Z"/>
    <path class="cls-2" d="M54.77,50.83c.02.23.03.46.05.69.14,1.34-.11,2.53-1.69,2.67-1.61.14-1.92-1.03-2.08-2.36-.19-1.59-.51-3.16-.8-4.73-.24-1.28-.04-2.36,1.38-2.71,1.36-.33,2.04.55,2.32,1.72"/>
    <path class="cls-2" d="M33.3,62.57c-5.63,0-10.18-4.54-10.23-10.2-.05-5.54,4.64-10.13,10.31-10.09,5.69.04,10.06,4.5,10.08,10.28.01,5.53-4.54,10.02-10.15,10.01ZM25.37,52.39c0,4.43,3.46,8,7.78,8.01,4.43,0,8.19-3.65,8.15-7.91-.05-4.33-3.66-8.03-7.86-8.03-4.5,0-8.06,3.5-8.07,7.93Z"/>
    <path class="cls-2" d="M27.5,52.42c0-3.19,2.63-5.85,5.78-5.86,3.15-.01,5.81,2.63,5.85,5.82.04,3.16-2.61,5.85-5.81,5.87-3.2.02-5.84-2.61-5.83-5.82Z"/>
  </g>
  <text class="cls-3" transform="translate(62.9 59.32)"><tspan class="cls-4"><tspan x="0" y="0">SPOTPLOTTER</tspan></tspan><tspan class="cls-1"><tspan x="0" y="10.73">AUTOMATED SPOTTING ASSAY QUANTIFICATION</tspan></tspan></text>
</svg>