<?xml version="1.0" encoding="UTF-8"?>
<svg id="SCREEN" xmlns="http://www.w3.org/2000/svg" viewBox="0 0 293.04 143.19">
  <defs>
    <style>
      .cls-1 {
        font-size: 9.65px;
      }

      .cls-2, .cls-3 {
        fill: #082934;
      }

      .cls-3 {
        font-family: MicrosoftNewTaiLue-Bold, 'Microsoft New Tai Lue';
        font-weight: 700;
      }

      .cls-4 {
        font-size: 33.56px;
      }
    </style>
  </defs>
  <path class="cls-2" d="M145.13,27.86c9.97-.01,17.89,7.89,17.93,17.9.04,9.89-8,17.89-17.96,17.88-10-.01-17.83-8-17.86-18.22-.03-9.51,8.16-17.55,17.89-17.56ZM145.27,30.89c-8.19.02-14.83,6.63-14.82,14.76,0,8.35,6.7,14.95,15.13,14.9,7.63-.04,14.41-6.88,14.45-14.57.04-8.3-6.62-15.11-14.76-15.09Z"/>
  <path class="cls-2" d="M164.7,61.86c-2.19-.02-3.11-1.6-2.26-3.37,1.04-2.15,2.03-4.35,3.34-6.34.45-.69,1.95-1.3,2.64-1.05.72.26,1.65,1.86,1.42,2.45-1.03,2.58-2.4,5.04-3.77,7.47-.28.49-1.09.68-1.37.84Z"/>
  <path class="cls-2" d="M136.85,20.74c.62-.37,1.41-.28,1.94.2.63.57,1.14,1.01,1.19,1.5.09.81-.39,2.11-1.05,2.51-2.14,1.32-4.42,2.45-6.76,3.39-.67.27-2.02-.09-2.47-.65-.45-.56-.53-2.25-.13-2.51,2.29-1.57,4.71-2.95,7.28-4.45Z"/>
  <path class="cls-2" d="M125.94,57.33c.39-.07.8,0,1.13.22s.75.49,1.1.84c1.43,1.38,2.73,2.88,4.19,4.23,1.18,1.08,1.7,2.25.65,3.57-1.02,1.29-2.37,1.04-3.42.05-1.83-1.74-3.67-3.5-5.24-5.46-1.11-1.39-.34-3.09,1.59-3.44Z"/>
  <path class="cls-2" d="M154.05,70.33c-.81.48-1.85.38-2.56-.25-.56-.49-1-.92-1.1-1.42-.15-.72.54-2,1.23-2.43,2.02-1.25,4.17-2.34,6.39-3.17.78-.29,2.15.1,2.8.68.43.39.38,2.18-.05,2.47-2.09,1.45-4.31,2.71-6.71,4.12Z"/>
  <path class="cls-2" d="M166.62,31.51c.08.44-.05.89-.31,1.25-.32.45-.69.94-1.17,1.14-.6.24-1.71.03-2.21-.42-1.94-1.71-3.82-3.52-5.51-5.48-.46-.53-.51-1.93-.12-2.54.39-.61,1.39-1.04,2.3-.98,3.23.21,4.66,4.51,6.94,6.82.04.05.07.11.08.2Z"/>
  <path class="cls-2" d="M123.37,40.52c-2.21.07-3.43-1.31-2.75-3,.99-2.45,2.23-4.84,3.67-7.05.38-.58,2.02-.83,2.81-.53,1.15.43,1.58,1.6.89,2.92-1.13,2.17-2.16,4.41-3.35,6.55-.31.57-1.04.92-1.28,1.12Z"/>
  <path class="cls-2" d="M146.25,19.59c2.2.45,4.41.85,6.59,1.39,1.48.36,2.25,1.42,1.73,2.92-.5,1.43-1.65,1.8-3.15,1.44-1.78-.43-3.59-.84-5.41-.98-1.69-.13-3.16-.49-3.09-2.43.08-1.96,1.64-2.27,3.33-2.33Z"/>
  <path class="cls-2" d="M119.12,46.52c.01-1.72.63-3.04,2.38-3.11,1.78-.06,2.27,1.27,2.38,2.92.12,1.83.4,3.67.85,5.44.4,1.59.16,2.87-1.42,3.29-1.57.41-2.55-.57-2.87-2.15-.44-2.13-.88-4.26-1.32-6.4Z"/>
  <path class="cls-2" d="M146.08,71.2c-.44.41-1.05.59-1.64.48-2.61-.47-4.82-.85-7.03-1.31-1.31-.27-2.06-1.16-1.8-2.53.27-1.44,1.3-2.08,2.72-1.87,2.43.36,4.89.65,7.24,1.32.75.21,1.7,1.58,1.62,2.32-.06.58-.6,1.1-1.12,1.58Z"/>
  <path class="cls-2" d="M170.79,43.84c.02.27.03.55.06.82.17,1.6-.14,3.02-2.01,3.18-1.91.17-2.29-1.23-2.48-2.81-.22-1.89-.61-3.77-.96-5.64-.28-1.52-.05-2.82,1.65-3.23,1.63-.4,2.43.65,2.76,2.05"/>
  <path class="cls-2" d="M145.2,57.84c-6.71,0-12.14-5.41-12.2-12.16-.06-6.61,5.53-12.08,12.29-12.03,6.78.04,12,5.36,12.01,12.25.01,6.59-5.41,11.94-12.1,11.94ZM135.75,45.7c0,5.28,4.13,9.54,9.27,9.55,5.28,0,9.77-4.35,9.71-9.43-.06-5.17-4.36-9.57-9.37-9.57-5.36,0-9.61,4.17-9.62,9.45Z"/>
  <path class="cls-2" d="M138.28,45.74c0-3.8,3.13-6.97,6.89-6.99,3.75-.02,6.93,3.14,6.98,6.93.05,3.77-3.11,6.97-6.92,6.99-3.82.02-6.96-3.11-6.95-6.94Z"/>
  <text class="cls-3" transform="translate(36.34 105.72)"><tspan class="cls-4"><tspan x="0" y="0">SPOTPLOTTER</tspan></tspan><tspan class="cls-1"><tspan x="0" y="11.58">AUTOMATED SPOTTING ASSAY QUANTIFICATION</tspan></tspan></text>
</svg>